model_states
version=1
nRows=23
nColumns=7
inDegrees=yes

# SIMM Motion File Header:
name model_states
datacolumns 7
datarows 23
otherdata 1
range 0.400000 0.670000
endheader
time	/jointset/knee_r/knee_angle_r/value	/jointset/knee_r/knee_angle_r/speed	/jointset/ankle_r/ankle_angle_r/value	/jointset/ankle_r/ankle_angle_r/speed	/jointset/subtalar_r/subtalar_angle_r/value	/jointset/subtalar_r/subtalar_angle_r/speed
      0.40000000	     22.34439545	      0.00000000	     -0.75604709	      0.00000000	     19.97105924	      0.00000000
      0.41000000	     22.30411868	     -8.05802965	     -0.98754682	    -46.30713160	     19.95754064	     -2.70594296
      0.43144589	     21.94495686	    -25.48599629	     -3.04832440	   -146.00615585	     19.83641980	     -8.62978204
      0.45289177	     21.20790614	    -43.33918890	     -7.25777491	   -246.76822999	     19.58494919	    -14.89017778
      0.47071365	     20.29996447	    -58.62034059	    -12.40884371	   -331.39258654	     19.27077932	    -20.41084086
      0.48658657	     19.25934118	    -72.53447784	    -18.26846928	   -406.83593693	     18.90660301	    -25.48405924
      0.50245949	     17.99686392	    -86.51912789	    -25.31642097	   -480.74091668	     18.46229370	    -30.44775008
      0.51833242	     16.51481722	   -100.09195481	    -33.50519884	   -549.86180580	     17.94310951	    -34.81550478
      0.53420534	     14.82587636	   -112.41984630	    -42.71830224	   -608.69692731	     17.36403450	    -37.85857142
      0.55007826	     12.95847709	   -122.38250075	    -52.73504900	   -649.81903970	     16.75253649	    -38.78471851
      0.56247424	     11.40535438	   -127.82288536	    -60.90091226	   -664.94174961	     16.27666140	    -37.73339770
      0.57487021	      9.79928593	   -130.90959048	    -69.14954929	   -663.05186907	     15.82309387	    -35.23328853
      0.58726619	      8.16927511	   -131.72852172	    -77.27041429	   -644.58748466	     15.40741209	    -31.71138882
      0.60250652	      6.17024085	   -130.21317966	    -86.79943648	   -602.87341950	     14.96095454	    -26.86579424
      0.61774686	      4.20968537	   -126.84305137	    -95.57063440	   -546.21909035	     14.58629016	    -22.44590403
      0.63298720	      2.30886171	   -122.49827128	   -103.40312300	   -480.54340509	     14.27071910	    -19.20534030
      0.64822754	      0.47779912	   -117.75788473	   -110.19389236	   -410.06540252	     13.99284151	    -17.53892070
      0.65228232	      0.00292349	   -116.47118467	   -111.81772717	   -390.86017716	     13.92208790	    -17.37996826
      0.65239610	     -0.01032731	   -116.43559861	   -111.86217075	   -390.31469003	     13.92011101	    -17.36505159
      0.65250989	     -0.02357408	   -116.40012832	   -111.90655215	   -389.76817877	     13.91813609	    -17.34778929
      0.65307882	     -0.08974736	   -116.22270703	   -112.12752607	   -387.03420215	     13.90829065	    -17.26285242
      0.65592348	     -0.41909789	   -115.33396449	   -113.20902887	   -373.33119558	     13.85975225	    -16.87278378
      0.67000000	     -2.01146423	   -110.89963415	   -117.98384355	   -304.94908950	     13.63143591	    -15.80626211
